<?xml version="1.0" encoding="utf-8"?>
<!-- Generator: Adobe Illustrator 17.0.0, SVG Export Plug-In . SVG Version: 6.00 Build 0)  -->
<!DOCTYPE svg PUBLIC "-//W3C//DTD SVG 1.1//EN" "http://www.w3.org/Graphics/SVG/1.1/DTD/svg11.dtd">
<svg version="1.1" id="Layer_1" xmlns="http://www.w3.org/2000/svg" xmlns:xlink="http://www.w3.org/1999/xlink" x="0px" y="0px"
	 width="687.205px" height="141.234px" viewBox="0 0 687.205 141.234" enable-background="new 0 0 687.205 141.234"
	 xml:space="preserve">
<g>
	<g>
		
			<rect x="79.851" y="47.083" transform="matrix(-0.5 -0.866 0.866 -0.5 76.0417 148.5283)" fill="#1F7FCA" width="2.092" height="10.461"/>
		
			<rect x="39.426" y="72.189" transform="matrix(-0.866 0.5 -0.5 -0.866 119.9477 114.3295)" fill="#1F7FCA" width="10.461" height="2.092"/>
		
			<rect x="61.732" y="57.544" transform="matrix(-0.5 -0.866 0.866 -0.5 39.8036 148.5294)" fill="#1F7FCA" width="2.092" height="10.461"/>
		<path fill="#1F7FCA" d="M125.542,62.776h-0.008c0.01-10.668-2.684-21.48-8.401-31.383C99.801,1.373,61.414-8.913,31.393,8.42
			C1.373,25.752-8.913,64.139,8.419,94.159c11.615,20.118,32.686,31.355,54.357,31.375v0.008h31.383
			c17.332,0,31.383,7.025,31.383,15.692v-15.692C125.542,125.542,125.542,62.776,125.542,62.776z M22.578,87.193l9.014-5.204
			l-0.523-0.906c-11.555-20.014-4.698-45.605,15.316-57.16c19.708-11.378,44.795-4.874,56.591,14.436l-9.014,5.204l0.523,0.906
			c11.555,20.014,4.698,45.605-15.316,57.16C59.461,113.008,34.374,106.504,22.578,87.193z"/>
	</g>
	<g>
		<g>
			<path fill="#1F7FCA" d="M129.042,139.862v-17.958c0-0.19,0.034-0.369,0.103-0.537s0.166-0.315,0.291-0.44
				c0.126-0.125,0.27-0.222,0.434-0.291s0.344-0.103,0.543-0.103h4.994c0.871,0,1.693,0.168,2.465,0.504
				c0.771,0.337,1.444,0.794,2.018,1.371c0.573,0.578,1.029,1.253,1.365,2.025c0.337,0.771,0.505,1.593,0.505,2.464
				c0,0.569-0.071,1.124-0.214,1.662c-0.142,0.54-0.354,1.049-0.634,1.527c-0.28,0.479-0.629,0.923-1.048,1.332
				c-0.419,0.41-0.904,0.77-1.456,1.081l4.127,6.612c0.146,0.241,0.22,0.491,0.22,0.75c0,0.198-0.034,0.38-0.103,0.543
				c-0.069,0.164-0.166,0.308-0.291,0.433c-0.126,0.126-0.272,0.223-0.44,0.292s-0.347,0.103-0.537,0.103
				c-0.483,0-0.876-0.224-1.177-0.673l-4.567-7.31h-3.856v6.611c0,0.38-0.134,0.703-0.401,0.97c-0.268,0.267-0.591,0.401-0.97,0.401
				c-0.38,0-0.703-0.134-0.97-0.401C129.175,140.566,129.042,140.242,129.042,139.862z M131.785,123.276v7.232h3.622
				c0.501,0,0.97-0.095,1.411-0.285s0.821-0.451,1.145-0.783s0.58-0.716,0.77-1.152c0.19-0.435,0.285-0.899,0.285-1.391
				c0-0.5-0.095-0.97-0.285-1.411c-0.19-0.439-0.448-0.823-0.776-1.151s-0.712-0.586-1.152-0.776
				c-0.44-0.19-0.905-0.285-1.398-0.285h-3.622V123.276z"/>
			<path fill="#1F7FCA" d="M160.861,138.491c0.38,0,0.703,0.134,0.97,0.401c0.267,0.268,0.401,0.591,0.401,0.97
				s-0.134,0.703-0.401,0.97c-0.268,0.267-0.591,0.401-0.97,0.401h-11.967c-0.199,0-0.38-0.034-0.543-0.103
				c-0.164-0.069-0.308-0.166-0.434-0.292c-0.125-0.125-0.222-0.269-0.291-0.433s-0.103-0.345-0.103-0.543v-17.958
				c0-0.19,0.034-0.369,0.103-0.537s0.166-0.315,0.291-0.44c0.126-0.125,0.27-0.222,0.434-0.291s0.344-0.103,0.543-0.103h11.967
				c0.38,0,0.703,0.134,0.97,0.401s0.401,0.591,0.401,0.97c0,0.38-0.134,0.703-0.401,0.97c-0.268,0.267-0.591,0.401-0.97,0.401
				h-10.596v6.236h7.607c0.38,0,0.703,0.134,0.97,0.401s0.401,0.591,0.401,0.97s-0.134,0.703-0.401,0.97
				c-0.268,0.267-0.591,0.401-0.97,0.401h-7.607v6.236h10.596V138.491z"/>
			<path fill="#1F7FCA" d="M167.179,139.242l6.909-17.777c0.276-0.621,0.712-0.931,1.306-0.931c0.613,0,1.049,0.31,1.307,0.931
				l6.935,17.841c0.069,0.173,0.103,0.358,0.103,0.556c0,0.38-0.134,0.703-0.401,0.97s-0.591,0.401-0.97,0.401
				s-0.699-0.134-0.957-0.401c-0.138-0.138-0.241-0.285-0.31-0.44l-2.394-6.146h-6.624l-2.407,6.146
				c-0.069,0.155-0.172,0.302-0.31,0.44c-0.268,0.267-0.591,0.401-0.97,0.401c-0.38,0-0.701-0.134-0.964-0.401
				s-0.394-0.591-0.394-0.97C167.037,139.656,167.084,139.448,167.179,139.242z M177.646,131.504l-2.252-5.809l-2.251,5.809H177.646
				z"/>
			<path fill="#1F7FCA" d="M188.582,121.905c0-0.38,0.133-0.703,0.401-0.97c0.267-0.267,0.591-0.401,0.97-0.401
				s0.703,0.134,0.97,0.401s0.401,0.591,0.401,0.97v16.586h9.6c0.38,0,0.703,0.134,0.97,0.401c0.267,0.268,0.401,0.591,0.401,0.97
				s-0.134,0.703-0.401,0.97s-0.591,0.401-0.97,0.401h-10.971c-0.199,0-0.38-0.034-0.543-0.103
				c-0.164-0.069-0.308-0.166-0.434-0.292c-0.125-0.125-0.222-0.269-0.291-0.433s-0.103-0.345-0.103-0.543L188.582,121.905
				L188.582,121.905z"/>
			<path fill="#1F7FCA" d="M231.597,123.276h-5.111v16.586c0,0.38-0.134,0.703-0.401,0.97s-0.591,0.401-0.97,0.401
				s-0.703-0.134-0.97-0.401s-0.401-0.591-0.401-0.97v-16.586h-5.11c-0.38,0-0.703-0.134-0.97-0.401
				c-0.268-0.268-0.401-0.591-0.401-0.97c0-0.38,0.133-0.703,0.401-0.97c0.267-0.267,0.591-0.401,0.97-0.401h12.964
				c0.379,0,0.703,0.134,0.97,0.401s0.401,0.591,0.401,0.97c0,0.38-0.134,0.703-0.401,0.97
				C232.3,123.142,231.976,123.276,231.597,123.276z"/>
			<path fill="#1F7FCA" d="M241.434,139.862c0,0.38-0.134,0.703-0.401,0.97s-0.591,0.401-0.97,0.401c-0.38,0-0.703-0.134-0.97-0.401
				s-0.401-0.591-0.401-0.97v-17.958c0-0.38,0.134-0.703,0.401-0.97s0.591-0.401,0.97-0.401c0.38,0,0.703,0.134,0.97,0.401
				s0.401,0.591,0.401,0.97V139.862z"/>
			<path fill="#1F7FCA" d="M246.989,139.862v-17.958c0-0.19,0.034-0.369,0.104-0.537c0.069-0.168,0.166-0.315,0.291-0.44
				s0.269-0.222,0.433-0.291s0.345-0.103,0.543-0.103c0.535,0,0.941,0.246,1.216,0.737l7.764,15.513l7.763-15.513
				c0.31-0.491,0.716-0.737,1.216-0.737c0.189,0,0.369,0.034,0.536,0.103c0.168,0.069,0.315,0.166,0.44,0.291
				c0.125,0.126,0.222,0.272,0.291,0.44c0.07,0.168,0.104,0.347,0.104,0.537v17.958c0,0.38-0.134,0.703-0.401,0.97
				c-0.268,0.267-0.591,0.401-0.97,0.401s-0.703-0.134-0.97-0.401c-0.268-0.267-0.401-0.591-0.401-0.97v-12.136l-6.417,12.822
				c-0.268,0.458-0.664,0.686-1.19,0.686c-0.569,0-0.988-0.276-1.255-0.828l-6.353-12.679v12.136c0,0.38-0.134,0.703-0.401,0.97
				s-0.591,0.401-0.97,0.401c-0.38,0-0.703-0.134-0.97-0.401C247.123,140.566,246.989,140.242,246.989,139.862z"/>
			<path fill="#1F7FCA" d="M285.988,138.491c0.38,0,0.703,0.134,0.97,0.401c0.267,0.268,0.401,0.591,0.401,0.97
				s-0.134,0.703-0.401,0.97c-0.268,0.267-0.591,0.401-0.97,0.401h-11.967c-0.199,0-0.38-0.034-0.543-0.103
				c-0.164-0.069-0.308-0.166-0.434-0.292c-0.125-0.125-0.222-0.269-0.291-0.433s-0.103-0.345-0.103-0.543v-17.958
				c0-0.19,0.034-0.369,0.103-0.537s0.166-0.315,0.291-0.44c0.126-0.125,0.27-0.222,0.434-0.291s0.344-0.103,0.543-0.103h11.967
				c0.38,0,0.703,0.134,0.97,0.401s0.401,0.591,0.401,0.97c0,0.38-0.134,0.703-0.401,0.97c-0.268,0.267-0.591,0.401-0.97,0.401
				h-10.596v6.236H283c0.38,0,0.703,0.134,0.97,0.401s0.401,0.591,0.401,0.97s-0.134,0.703-0.401,0.97
				c-0.268,0.267-0.591,0.401-0.97,0.401h-7.607v6.236h10.595V138.491z"/>
			<path fill="#1F7FCA" d="M302.325,139.862v-17.958c0-0.19,0.034-0.369,0.103-0.537s0.166-0.315,0.291-0.44
				c0.126-0.125,0.27-0.222,0.434-0.291s0.344-0.103,0.543-0.103h4.994c0.871,0,1.693,0.168,2.465,0.504
				c0.771,0.337,1.444,0.794,2.018,1.371c0.573,0.578,1.029,1.253,1.365,2.025c0.337,0.771,0.505,1.593,0.505,2.464
				c0,0.569-0.071,1.124-0.214,1.662c-0.142,0.54-0.354,1.049-0.634,1.527c-0.28,0.479-0.629,0.923-1.048,1.332
				c-0.419,0.41-0.904,0.77-1.456,1.081l4.127,6.612c0.146,0.241,0.22,0.491,0.22,0.75c0,0.198-0.034,0.38-0.103,0.543
				c-0.069,0.164-0.166,0.308-0.291,0.433c-0.125,0.126-0.272,0.223-0.44,0.292s-0.347,0.103-0.537,0.103
				c-0.483,0-0.876-0.224-1.177-0.673l-4.567-7.31h-3.856v6.611c0,0.38-0.134,0.703-0.401,0.97c-0.268,0.267-0.591,0.401-0.97,0.401
				s-0.703-0.134-0.97-0.401C302.458,140.566,302.325,140.242,302.325,139.862z M305.068,123.276v7.232h3.622
				c0.501,0,0.97-0.095,1.411-0.285s0.821-0.451,1.145-0.783s0.58-0.716,0.77-1.152c0.19-0.435,0.285-0.899,0.285-1.391
				c0-0.5-0.095-0.97-0.285-1.411c-0.19-0.439-0.448-0.823-0.776-1.151s-0.712-0.586-1.152-0.776s-0.905-0.285-1.397-0.285h-3.623
				V123.276z"/>
			<path fill="#1F7FCA" d="M334.144,138.491c0.38,0,0.703,0.134,0.97,0.401c0.267,0.268,0.401,0.591,0.401,0.97
				s-0.134,0.703-0.401,0.97c-0.268,0.267-0.591,0.401-0.97,0.401h-11.967c-0.199,0-0.38-0.034-0.543-0.103
				c-0.164-0.069-0.308-0.166-0.434-0.292c-0.125-0.125-0.222-0.269-0.291-0.433s-0.103-0.345-0.103-0.543v-17.958
				c0-0.19,0.034-0.369,0.103-0.537s0.166-0.315,0.291-0.44c0.126-0.125,0.27-0.222,0.434-0.291s0.344-0.103,0.543-0.103h11.967
				c0.38,0,0.703,0.134,0.97,0.401s0.401,0.591,0.401,0.97c0,0.38-0.134,0.703-0.401,0.97c-0.268,0.267-0.591,0.401-0.97,0.401
				h-10.596v6.236h7.607c0.38,0,0.703,0.134,0.97,0.401s0.401,0.591,0.401,0.97s-0.134,0.703-0.401,0.97
				c-0.268,0.267-0.591,0.401-0.97,0.401h-7.607v6.236h10.596V138.491z"/>
			<path fill="#1F7FCA" d="M340.552,138.362c-0.181-0.233-0.272-0.509-0.272-0.828c0-0.19,0.034-0.369,0.103-0.536
				c0.069-0.168,0.166-0.315,0.292-0.44c0.125-0.125,0.269-0.222,0.433-0.292c0.164-0.069,0.345-0.103,0.543-0.103
				c0.509,0,0.892,0.211,1.151,0.634c0.363,0.56,0.816,0.983,1.359,1.267c0.543,0.285,1.13,0.427,1.759,0.427
				c0.491,0,0.955-0.097,1.391-0.291c0.435-0.194,0.815-0.455,1.139-0.783c0.323-0.328,0.579-0.713,0.769-1.158
				c0.19-0.444,0.285-0.916,0.285-1.417c0-0.475-0.088-0.921-0.265-1.339s-0.416-0.784-0.718-1.1
				c-0.302-0.315-0.654-0.571-1.055-0.77c-0.401-0.198-0.826-0.318-1.274-0.362c-0.69-0.06-1.333-0.241-1.928-0.543
				s-1.117-0.692-1.566-1.171c-0.448-0.478-0.8-1.026-1.055-1.643c-0.254-0.617-0.381-1.27-0.381-1.96
				c0-0.845,0.159-1.611,0.478-2.297s0.789-1.296,1.41-1.831h-0.013c0.992-0.863,2.156-1.293,3.493-1.293
				c0.432,0,0.863,0.054,1.294,0.161c0.431,0.108,0.847,0.272,1.248,0.491c0.401,0.22,0.777,0.494,1.126,0.822
				c0.349,0.328,0.662,0.712,0.938,1.151c0.129,0.225,0.194,0.471,0.194,0.738c0,0.198-0.034,0.38-0.103,0.543
				s-0.166,0.308-0.291,0.433c-0.126,0.126-0.272,0.223-0.44,0.292s-0.347,0.103-0.537,0.103c-0.172,0-0.325-0.026-0.459-0.077
				c-0.134-0.052-0.254-0.126-0.362-0.22s-0.211-0.204-0.311-0.33c-0.099-0.125-0.205-0.269-0.317-0.433
				c-0.207-0.302-0.49-0.528-0.847-0.68c-0.358-0.151-0.744-0.227-1.158-0.227c-0.328,0-0.647,0.067-0.957,0.201
				c-0.311,0.134-0.587,0.318-0.828,0.55c-0.242,0.233-0.438,0.509-0.589,0.828c-0.152,0.319-0.227,0.664-0.227,1.035
				c0,0.337,0.062,0.656,0.188,0.957c0.125,0.302,0.295,0.572,0.511,0.809c0.215,0.237,0.468,0.432,0.756,0.582
				c0.289,0.151,0.602,0.239,0.938,0.265c0.802,0.06,1.557,0.268,2.265,0.621c0.707,0.354,1.326,0.813,1.856,1.378
				c0.531,0.565,0.951,1.214,1.262,1.947c0.31,0.733,0.465,1.505,0.465,2.316c0,2.018-0.746,3.658-2.238,4.916h0.013
				c-1.199,1.018-2.562,1.527-4.088,1.527c-0.51,0-1.018-0.063-1.527-0.188s-0.999-0.308-1.469-0.55
				c-0.47-0.241-0.91-0.543-1.319-0.905C341.209,139.229,340.853,138.819,340.552,138.362z"/>
			<path fill="#1F7FCA" d="M377.715,130.884c0,2.855-1.014,5.296-3.041,7.323c-2.018,2.018-4.455,3.028-7.31,3.028
				c-2.864,0-5.305-1.009-7.323-3.028c-2.018-2.018-3.028-4.459-3.028-7.323c0-2.855,1.009-5.291,3.028-7.31
				c2.027-2.027,4.468-3.04,7.323-3.04c2.846,0,5.282,1.013,7.31,3.04c1.018,1.018,1.779,2.131,2.284,3.338
				C377.462,128.119,377.715,129.443,377.715,130.884z M367.364,123.276c-1.07,0-2.047,0.185-2.93,0.556
				c-0.885,0.37-1.702,0.931-2.452,1.681c-0.751,0.751-1.309,1.566-1.675,2.445c-0.367,0.88-0.55,1.855-0.55,2.924
				c0,2.105,0.742,3.899,2.226,5.382c1.483,1.484,3.278,2.226,5.383,2.226c2.104,0,3.899-0.742,5.382-2.226
				c1.483-1.483,2.226-3.277,2.226-5.382c0-2.096-0.742-3.886-2.226-5.37C371.254,124.022,369.46,123.276,367.364,123.276z"/>
			<path fill="#1F7FCA" d="M385.417,121.905v11.967c0,0.63,0.12,1.225,0.362,1.786c0.241,0.561,0.569,1.05,0.983,1.469
				c0.414,0.418,0.901,0.75,1.462,0.996s1.16,0.369,1.799,0.369s1.238-0.121,1.799-0.362c0.56-0.242,1.05-0.574,1.468-0.996
				c0.419-0.422,0.749-0.912,0.99-1.469c0.241-0.556,0.362-1.153,0.362-1.792v-11.967c0-0.38,0.134-0.703,0.401-0.97
				s0.591-0.401,0.97-0.401c0.38,0,0.703,0.134,0.97,0.401s0.401,0.591,0.401,0.97v11.967c0,0.673-0.089,1.319-0.266,1.941
				c-0.177,0.621-0.425,1.205-0.744,1.753s-0.703,1.046-1.151,1.495s-0.947,0.834-1.495,1.158s-1.134,0.574-1.76,0.75
				c-0.625,0.178-1.274,0.266-1.947,0.266c-2.036,0-3.765-0.72-5.188-2.161c-1.44-1.44-2.161-3.174-2.161-5.201v-11.967
				c0-0.38,0.133-0.703,0.401-0.97c0.267-0.267,0.591-0.401,0.97-0.401s0.703,0.134,0.97,0.401
				C385.283,121.201,385.417,121.525,385.417,121.905z"/>
			<path fill="#1F7FCA" d="M402.163,139.862v-17.958c0-0.19,0.034-0.369,0.103-0.537s0.166-0.315,0.291-0.44s0.27-0.222,0.434-0.291
				s0.344-0.103,0.543-0.103h4.994c0.871,0,1.693,0.168,2.465,0.504c0.771,0.337,1.444,0.794,2.018,1.371
				c0.573,0.578,1.029,1.253,1.365,2.025c0.337,0.771,0.505,1.593,0.505,2.464c0,0.569-0.071,1.124-0.214,1.662
				c-0.142,0.54-0.354,1.049-0.634,1.527c-0.28,0.479-0.629,0.923-1.048,1.332c-0.419,0.41-0.904,0.77-1.456,1.081l4.127,6.612
				c0.146,0.241,0.22,0.491,0.22,0.75c0,0.198-0.034,0.38-0.103,0.543c-0.069,0.164-0.166,0.308-0.291,0.433
				c-0.126,0.126-0.272,0.223-0.44,0.292s-0.347,0.103-0.537,0.103c-0.483,0-0.876-0.224-1.177-0.673l-4.567-7.31h-3.856v6.611
				c0,0.38-0.134,0.703-0.401,0.97c-0.268,0.267-0.591,0.401-0.97,0.401s-0.703-0.134-0.97-0.401
				C402.296,140.566,402.163,140.242,402.163,139.862z M404.906,123.276v7.232h3.622c0.501,0,0.97-0.095,1.41-0.285
				s0.821-0.451,1.145-0.783s0.58-0.716,0.77-1.152c0.19-0.435,0.285-0.899,0.285-1.391c0-0.5-0.095-0.97-0.285-1.411
				c-0.19-0.439-0.448-0.823-0.776-1.151s-0.712-0.586-1.152-0.776s-0.905-0.285-1.397-0.285h-3.622V123.276z"/>
			<path fill="#1F7FCA" d="M436.583,136.576c0.19,0,0.367,0.037,0.53,0.11c0.164,0.073,0.308,0.171,0.433,0.291
				c0.126,0.121,0.224,0.266,0.298,0.434c0.073,0.168,0.11,0.347,0.11,0.536c0,0.362-0.142,0.69-0.427,0.983
				c-1.923,1.535-4.093,2.303-6.508,2.303c-2.864,0-5.305-1.009-7.323-3.028c-2.018-2.018-3.027-4.459-3.027-7.323
				c0-2.855,1.009-5.291,3.027-7.31c2.027-2.027,4.468-3.04,7.323-3.04c2.449,0,4.662,0.807,6.637,2.419
				c0.241,0.233,0.362,0.548,0.362,0.944c0,0.198-0.034,0.38-0.103,0.543s-0.166,0.308-0.291,0.433
				c-0.125,0.126-0.272,0.223-0.44,0.292s-0.347,0.103-0.537,0.103c-0.336,0-0.651-0.129-0.944-0.388
				c-0.655-0.517-1.378-0.915-2.167-1.19c-0.789-0.276-1.629-0.414-2.516-0.414c-2.105,0-3.903,0.746-5.396,2.238
				c-1.475,1.475-2.213,3.265-2.213,5.37c0,2.113,0.738,3.907,2.213,5.382c1.484,1.484,3.282,2.226,5.396,2.226
				c1.802,0,3.39-0.556,4.761-1.669C436.005,136.666,436.272,136.585,436.583,136.576z"/>
			<path fill="#1F7FCA" d="M456.071,138.491c0.38,0,0.703,0.134,0.97,0.401c0.267,0.268,0.401,0.591,0.401,0.97
				s-0.134,0.703-0.401,0.97c-0.268,0.267-0.591,0.401-0.97,0.401h-11.967c-0.199,0-0.38-0.034-0.543-0.103
				c-0.164-0.069-0.308-0.166-0.434-0.292c-0.125-0.125-0.222-0.269-0.291-0.433s-0.103-0.345-0.103-0.543v-17.958
				c0-0.19,0.034-0.369,0.103-0.537s0.166-0.315,0.291-0.44c0.126-0.125,0.27-0.222,0.434-0.291s0.344-0.103,0.543-0.103h11.967
				c0.38,0,0.703,0.134,0.97,0.401s0.401,0.591,0.401,0.97c0,0.38-0.134,0.703-0.401,0.97c-0.268,0.267-0.591,0.401-0.97,0.401
				h-10.596v6.236h7.607c0.38,0,0.703,0.134,0.97,0.401s0.401,0.591,0.401,0.97s-0.134,0.703-0.401,0.97
				c-0.268,0.267-0.591,0.401-0.97,0.401h-7.607v6.236h10.596V138.491z"/>
			<path fill="#1F7FCA" d="M472.472,139.862v-17.958c0-0.19,0.034-0.369,0.104-0.537c0.069-0.168,0.166-0.315,0.291-0.44
				s0.269-0.222,0.433-0.291s0.345-0.103,0.543-0.103c0.535,0,0.941,0.246,1.216,0.737l7.764,15.513l7.763-15.513
				c0.31-0.491,0.716-0.737,1.216-0.737c0.189,0,0.369,0.034,0.536,0.103c0.168,0.069,0.315,0.166,0.44,0.291
				c0.125,0.126,0.222,0.272,0.291,0.44c0.07,0.168,0.104,0.347,0.104,0.537v17.958c0,0.38-0.134,0.703-0.401,0.97
				c-0.268,0.267-0.591,0.401-0.97,0.401c-0.38,0-0.703-0.134-0.97-0.401c-0.268-0.267-0.401-0.591-0.401-0.97v-12.136
				l-6.417,12.822c-0.268,0.458-0.664,0.686-1.19,0.686c-0.569,0-0.988-0.276-1.255-0.828l-6.353-12.679v12.136
				c0,0.38-0.134,0.703-0.401,0.97s-0.591,0.401-0.97,0.401c-0.38,0-0.703-0.134-0.97-0.401
				C472.606,140.566,472.472,140.242,472.472,139.862z"/>
			<path fill="#1F7FCA" d="M498.288,139.242l6.909-17.777c0.276-0.621,0.712-0.931,1.306-0.931c0.613,0,1.048,0.31,1.307,0.931
				l6.935,17.841c0.069,0.173,0.103,0.358,0.103,0.556c0,0.38-0.134,0.703-0.401,0.97s-0.591,0.401-0.97,0.401
				c-0.38,0-0.699-0.134-0.957-0.401c-0.138-0.138-0.241-0.285-0.31-0.44l-2.394-6.146h-6.624l-2.407,6.146
				c-0.069,0.155-0.172,0.302-0.31,0.44c-0.268,0.267-0.591,0.401-0.97,0.401s-0.701-0.134-0.964-0.401s-0.394-0.591-0.394-0.97
				C498.146,139.656,498.193,139.448,498.288,139.242z M508.755,131.504l-2.252-5.809l-2.251,5.809H508.755z"/>
			<path fill="#1F7FCA" d="M519.718,139.862v-17.958c0-0.19,0.034-0.369,0.103-0.537c0.069-0.168,0.166-0.315,0.291-0.44
				c0.126-0.125,0.269-0.222,0.434-0.291c0.164-0.069,0.344-0.103,0.543-0.103c0.405,0,0.758,0.168,1.061,0.504l11.54,14.84v-13.973
				c0-0.38,0.134-0.703,0.401-0.97c0.268-0.267,0.591-0.401,0.97-0.401c0.38,0,0.703,0.134,0.97,0.401
				c0.267,0.267,0.401,0.591,0.401,0.97v17.958c0,0.198-0.034,0.38-0.103,0.543c-0.069,0.164-0.166,0.308-0.291,0.433
				c-0.125,0.126-0.272,0.223-0.44,0.292s-0.347,0.103-0.537,0.103c-0.406,0-0.755-0.159-1.048-0.478l-11.553-14.841v13.947
				c0,0.38-0.134,0.703-0.401,0.97c-0.268,0.267-0.592,0.401-0.97,0.401c-0.38,0-0.703-0.134-0.97-0.401
				C519.851,140.566,519.718,140.242,519.718,139.862z"/>
			<path fill="#1F7FCA" d="M541.432,139.242l6.909-17.777c0.276-0.621,0.712-0.931,1.306-0.931c0.613,0,1.049,0.31,1.307,0.931
				l6.935,17.841c0.069,0.173,0.103,0.358,0.103,0.556c0,0.38-0.134,0.703-0.401,0.97s-0.591,0.401-0.97,0.401
				s-0.699-0.134-0.957-0.401c-0.138-0.138-0.241-0.285-0.31-0.44l-2.394-6.146h-6.624l-2.407,6.146
				c-0.069,0.155-0.172,0.302-0.31,0.44c-0.268,0.267-0.591,0.401-0.97,0.401c-0.38,0-0.701-0.134-0.964-0.401
				s-0.394-0.591-0.394-0.97C541.29,139.656,541.337,139.448,541.432,139.242z M551.899,131.504l-2.252-5.809l-2.251,5.809H551.899z
				"/>
			<path fill="#1F7FCA" d="M580.16,137.948c0,0.362-0.142,0.69-0.427,0.983c-1.923,1.535-4.093,2.303-6.508,2.303
				c-2.864,0-5.305-1.009-7.323-3.028c-2.018-2.018-3.027-4.459-3.027-7.323c0-2.855,1.009-5.291,3.027-7.31
				c2.027-2.027,4.468-3.04,7.323-3.04c2.449,0,4.662,0.807,6.637,2.419c0.241,0.224,0.362,0.539,0.362,0.944
				c0,0.198-0.034,0.38-0.103,0.543c-0.069,0.164-0.166,0.308-0.291,0.433c-0.125,0.126-0.272,0.223-0.44,0.292
				s-0.347,0.103-0.537,0.103c-0.354,0-0.668-0.129-0.944-0.388c-0.655-0.517-1.378-0.915-2.167-1.19
				c-0.789-0.276-1.629-0.414-2.516-0.414c-2.105,0-3.903,0.746-5.396,2.238c-1.475,1.475-2.213,3.265-2.213,5.37
				c0,2.113,0.738,3.907,2.213,5.382c1.484,1.484,3.282,2.226,5.396,2.226c1.561,0,2.958-0.409,4.192-1.229v-4.01h-3.571
				c-0.388,0-0.714-0.132-0.977-0.395s-0.395-0.589-0.395-0.977c0-0.19,0.034-0.369,0.103-0.537c0.07-0.168,0.166-0.315,0.292-0.44
				c0.125-0.125,0.269-0.222,0.433-0.291s0.345-0.103,0.543-0.103h4.956c0.181,0,0.354,0.037,0.517,0.109
				c0.164,0.073,0.308,0.173,0.433,0.298c0.126,0.126,0.224,0.272,0.298,0.44c0.073,0.168,0.11,0.343,0.11,0.524L580.16,137.948
				L580.16,137.948z"/>
			<path fill="#1F7FCA" d="M598.536,138.491c0.38,0,0.703,0.134,0.97,0.401c0.267,0.268,0.401,0.591,0.401,0.97
				s-0.134,0.703-0.401,0.97c-0.268,0.267-0.591,0.401-0.97,0.401h-11.968c-0.199,0-0.38-0.034-0.543-0.103
				c-0.164-0.069-0.308-0.166-0.434-0.292c-0.125-0.125-0.222-0.269-0.291-0.433c-0.069-0.164-0.103-0.345-0.103-0.543v-17.958
				c0-0.19,0.034-0.369,0.103-0.537c0.069-0.168,0.166-0.315,0.291-0.44s0.27-0.222,0.434-0.291s0.344-0.103,0.543-0.103h11.968
				c0.38,0,0.703,0.134,0.97,0.401c0.267,0.267,0.401,0.591,0.401,0.97c0,0.38-0.134,0.703-0.401,0.97
				c-0.268,0.267-0.591,0.401-0.97,0.401H587.94v6.236h7.607c0.38,0,0.703,0.134,0.97,0.401c0.267,0.267,0.401,0.591,0.401,0.97
				s-0.134,0.703-0.401,0.97c-0.268,0.267-0.591,0.401-0.97,0.401h-7.607v6.236h10.596V138.491z"/>
			<path fill="#1F7FCA" d="M604.75,139.862v-17.958c0-0.19,0.034-0.369,0.104-0.537c0.069-0.168,0.166-0.315,0.291-0.44
				s0.269-0.222,0.433-0.291s0.345-0.103,0.543-0.103c0.535,0,0.941,0.246,1.216,0.737l7.763,15.513l7.763-15.513
				c0.31-0.491,0.716-0.737,1.216-0.737c0.189,0,0.369,0.034,0.536,0.103c0.168,0.069,0.315,0.166,0.44,0.291
				c0.125,0.126,0.222,0.272,0.291,0.44c0.07,0.168,0.104,0.347,0.104,0.537v17.958c0,0.38-0.134,0.703-0.401,0.97
				c-0.268,0.267-0.591,0.401-0.97,0.401s-0.703-0.134-0.97-0.401c-0.268-0.267-0.401-0.591-0.401-0.97v-12.136l-6.417,12.822
				c-0.268,0.458-0.664,0.686-1.19,0.686c-0.569,0-0.988-0.276-1.255-0.828l-6.353-12.679v12.136c0,0.38-0.134,0.703-0.401,0.97
				s-0.591,0.401-0.97,0.401s-0.703-0.134-0.97-0.401C604.884,140.566,604.75,140.242,604.75,139.862z"/>
			<path fill="#1F7FCA" d="M643.75,138.491c0.38,0,0.703,0.134,0.97,0.401c0.267,0.268,0.401,0.591,0.401,0.97
				s-0.134,0.703-0.401,0.97c-0.268,0.267-0.591,0.401-0.97,0.401h-11.968c-0.199,0-0.38-0.034-0.543-0.103
				c-0.164-0.069-0.308-0.166-0.434-0.292c-0.125-0.125-0.222-0.269-0.291-0.433c-0.069-0.164-0.103-0.345-0.103-0.543v-17.958
				c0-0.19,0.034-0.369,0.103-0.537s0.166-0.315,0.291-0.44s0.27-0.222,0.434-0.291s0.344-0.103,0.543-0.103h11.968
				c0.38,0,0.703,0.134,0.97,0.401c0.267,0.267,0.401,0.591,0.401,0.97c0,0.38-0.134,0.703-0.401,0.97
				c-0.268,0.267-0.591,0.401-0.97,0.401h-10.596v6.236h7.607c0.38,0,0.703,0.134,0.97,0.401c0.267,0.267,0.401,0.591,0.401,0.97
				s-0.134,0.703-0.401,0.97c-0.268,0.267-0.591,0.401-0.97,0.401h-7.607v6.236h10.596V138.491z"/>
			<path fill="#1F7FCA" d="M649.926,139.862v-17.958c0-0.19,0.034-0.369,0.103-0.537c0.069-0.168,0.166-0.315,0.291-0.44
				s0.269-0.222,0.434-0.291c0.164-0.069,0.344-0.103,0.543-0.103c0.405,0,0.758,0.168,1.061,0.504l11.54,14.84v-13.973
				c0-0.38,0.134-0.703,0.401-0.97c0.268-0.267,0.591-0.401,0.97-0.401s0.703,0.134,0.97,0.401c0.267,0.267,0.401,0.591,0.401,0.97
				v17.958c0,0.198-0.034,0.38-0.103,0.543c-0.069,0.164-0.166,0.308-0.291,0.433c-0.126,0.126-0.272,0.223-0.44,0.292
				s-0.347,0.103-0.537,0.103c-0.406,0-0.755-0.159-1.048-0.478l-11.553-14.841v13.947c0,0.38-0.134,0.703-0.401,0.97
				c-0.268,0.267-0.592,0.401-0.97,0.401c-0.38,0-0.703-0.134-0.97-0.401C650.059,140.566,649.926,140.242,649.926,139.862z"/>
			<path fill="#1F7FCA" d="M685.833,123.276h-5.111v16.586c0,0.38-0.134,0.703-0.401,0.97s-0.591,0.401-0.97,0.401
				s-0.703-0.134-0.97-0.401c-0.267-0.267-0.401-0.591-0.401-0.97v-16.586h-5.11c-0.38,0-0.703-0.134-0.97-0.401
				c-0.268-0.268-0.401-0.591-0.401-0.97c0-0.38,0.133-0.703,0.401-0.97c0.267-0.267,0.591-0.401,0.97-0.401h12.964
				c0.379,0,0.703,0.134,0.97,0.401c0.267,0.267,0.401,0.591,0.401,0.97c0,0.38-0.134,0.703-0.401,0.97
				C686.536,123.142,686.212,123.276,685.833,123.276z"/>
		</g>
	</g>
	<g>
		<g>
			<path fill="#1F7FCA" d="M179.207,45.208c0-3.6,1.291-6.692,3.874-9.275s5.674-3.874,9.274-3.874v31.227
				c0,8.662-3.105,16.056-9.313,22.186c-6.21,6.132-13.645,9.197-22.305,9.197c-8.713,0-16.174-3.065-22.383-9.197
				c-6.209-6.13-9.313-13.524-9.313-22.186V32.06c3.6,0,6.691,1.291,9.274,3.874c2.583,2.583,3.874,5.675,3.874,9.275v18.078
				c0,5.165,1.8,9.614,5.4,13.343c3.6,3.731,7.983,5.597,13.148,5.597c5.113,0,9.47-1.879,13.07-5.635
				c3.6-3.758,5.4-8.19,5.4-13.305L179.207,45.208L179.207,45.208z"/>
			<path fill="#1F7FCA" d="M244.216,94.669c-8.661,0-16.096-3.04-22.305-9.117c-6.209-6.077-9.313-13.448-9.313-22.11
				c0-8.66,3.104-16.056,9.313-22.186s13.644-9.197,22.305-9.197h18.47c0,3.444-1.213,6.378-3.639,8.805
				c-2.427,2.425-5.361,3.638-8.804,3.638h-6.027c-5.165,0-9.561,1.866-13.187,5.597c-3.627,3.731-5.439,8.178-5.439,13.343
				s1.812,9.587,5.439,13.265c3.625,3.68,8.022,5.519,13.187,5.519h6.027c3.443,0,6.378,1.212,8.804,3.638
				c2.426,2.427,3.639,5.361,3.639,8.805H244.216z"/>
			<path fill="#1F7FCA" d="M279.604,94.669h-13.148V32.06c3.6,0,6.691,1.291,9.274,3.874c2.583,2.583,3.874,5.675,3.874,9.275
				v12.599h7.953c5.113,0,9.47-1.877,13.07-5.635c3.6-3.756,5.4-8.19,5.4-13.305V32.06h10.906v6.808
				c0,5.009-1.135,9.719-3.405,14.126c-2.269,4.41-5.413,8.101-9.43,11.074c4.017,2.974,7.161,6.667,9.43,11.074
				c2.27,4.41,3.405,9.092,3.405,14.048v5.479h-10.906V89.19c0-5.113-1.8-9.547-5.4-13.305c-3.6-3.756-7.957-5.635-13.07-5.635
				h-7.953L279.604,94.669L279.604,94.669z"/>
			<path fill="#1F7FCA" d="M406.228,106.447c-2.583,2.583-5.673,3.874-9.273,3.874V63.442c0-8.66,3.118-16.056,9.353-22.186
				c6.234-6.13,13.682-9.197,22.342-9.197s16.123,3.067,22.383,9.197c6.261,6.13,9.391,13.526,9.391,22.186
				c0,8.662-3.118,16.032-9.351,22.11c-6.237,6.077-13.711,9.117-22.423,9.117h-18.548v2.505
				C410.101,100.774,408.81,103.864,406.228,106.447z M428.649,82.226c5.165,0,9.536-1.839,13.109-5.519
				c3.575-3.678,5.361-8.1,5.361-13.265s-1.786-9.612-5.361-13.343c-3.573-3.731-7.944-5.597-13.109-5.597
				s-9.534,1.866-13.107,5.597c-3.575,3.731-5.361,8.178-5.361,13.343v18.783L428.649,82.226L428.649,82.226z"/>
			<path fill="#1F7FCA" d="M528.98,63.442v31.227h-31.774c-8.662,0-16.11-3.04-22.344-9.117c-6.235-6.077-9.353-13.448-9.353-22.11
				c0-8.66,3.118-16.056,9.353-22.186c6.234-6.13,13.682-9.197,22.344-9.197c8.66,0,16.121,3.067,22.382,9.197
				C525.849,47.386,528.98,54.782,528.98,63.442z M515.675,82.226V63.442c0-5.165-1.791-9.612-5.374-13.343
				c-3.581-3.731-7.96-5.597-13.136-5.597s-9.555,1.866-13.136,5.597c-3.583,3.731-5.372,8.178-5.372,13.343
				s1.79,9.587,5.372,13.265c3.581,3.68,7.96,5.519,13.136,5.519H515.675z"/>
			<path fill="#1F7FCA" d="M584.527,32.06c0,3.444-1.213,6.378-3.64,8.805c-2.427,2.425-5.361,3.638-8.805,3.638h-12.521v50.166
				c-3.6,0-6.691-1.291-9.273-3.874c-2.583-2.583-3.874-5.675-3.874-9.275V44.503h-12.521c-3.444,0-6.378-1.213-8.805-3.638
				c-2.427-2.427-3.64-5.361-3.64-8.805C521.448,32.06,584.527,32.06,584.527,32.06z"/>
			<path fill="#1F7FCA" d="M608.856,94.669c-8.662,0-16.097-3.04-22.305-9.117c-6.21-6.077-9.313-13.448-9.313-22.11
				c0-8.66,3.103-16.056,9.313-22.186c6.208-6.13,13.644-9.197,22.305-9.197h18.468c0,3.444-1.212,6.378-3.638,8.805
				c-2.427,2.425-5.361,3.638-8.805,3.638h-6.025c-5.165,0-9.561,1.866-13.188,5.597c-3.625,3.731-5.439,8.178-5.439,13.343
				s1.814,9.587,5.439,13.265c3.627,3.68,8.023,5.519,13.188,5.519h6.025c3.444,0,6.378,1.212,8.805,3.638
				c2.427,2.427,3.638,5.361,3.638,8.805H608.856z"/>
			<path fill="#1F7FCA" d="M687.205,94.669c-3.6,0-6.692-1.291-9.275-3.874s-3.874-5.675-3.874-9.275V69.547h-29.19v25.122
				c-3.6,0-6.692-1.291-9.275-3.874s-3.874-5.675-3.874-9.275V32.06c3.6,0,6.692,1.291,9.275,3.874s3.874,5.675,3.874,9.275v11.973
				h29.19V32.06c3.653,0,6.757,1.279,9.313,3.836c2.557,2.556,3.836,5.66,3.836,9.313L687.205,94.669L687.205,94.669z"/>
		</g>
		<path fill="#1F7FCA" d="M372.962,48.969c0.303-2.097,2.134-4.422,6.814-4.468h12.032c6.849,0,12.401-5.552,12.401-12.401v-0.04
			h-0.002H379.41h-1.63c-11.747-0.092-17.619,6.861-17.619,18.974c0,4.45,1.606,8.053,4.095,11.391
			c3.571,4.788,12.888,8.201,12.004,14.488c-0.485,3.445-3.235,5.002-9.016,5.232H355.8c-6.493,0-11.828,4.948-12.445,11.279
			l0.007,1.246h24.226c0.247,0,0.475-0.017,0.718-0.021c6.979-0.109,12.325-1.767,16.006-5.003
			c3.807-3.349,5.712-8.304,5.712-14.866c0-5.001-1.199-7.684-4.233-11.494C382.799,59.525,372.107,54.882,372.962,48.969z"/>
		<g>
			<path fill="#1F7FCA" d="M205.243,35.934c-2.583-2.583-5.674-3.874-9.274-3.874v7.921c3.6,0,6.691,1.291,9.274,3.874
				c2.583,2.583,3.874,5.675,3.874,9.275v-7.921C209.117,41.608,207.826,38.516,205.243,35.934z"/>
			<path fill="#1F7FCA" d="M195.97,43.49v38.03c0,3.6,1.291,6.692,3.874,9.275s5.674,3.874,9.274,3.874v-38.03
				c0-3.6-1.291-6.692-3.874-9.275C202.661,44.781,199.57,43.49,195.97,43.49z"/>
		</g>
	</g>
</g>
</svg>
